<svg xmlns="http://www.w3.org/2000/svg" viewBox="0 0 512 512">
  <path d="M72 326c92-55 238-24 362-111 12-9 25 10 12 20C319 329 169 294 80 350c-17 10-25-14-8-24z"/>
  <path d="M86 377c95-60 240-30 367-114 9-6 19 8 9 15C331 369 185 340 94 398c-15 9-23-12-8-21z"/>
  <path d="M161 137h78v31h-19c-16-20-36-30-61-30-27 0-49 9-66 27-18 18-26 41-26 68 0 28 9 51 27 69 18 17 41 26 70 26 15 0 28-3 40-9v-63h-49v-28h126v28h-28v83c-30 15-61 22-94 22-45 0-82-12-111-37-30-25-44-56-44-94 0-37 14-68 43-93 29-24 65-36 108-36 25 0 47 5 67 15l15-18h24v59z"/>
  <path d="M257 137h95c45 0 82 10 110 31 29 21 43 48 43 82 0 34-14 61-42 82-28 20-66 30-113 30h-93v-31h31V168h-31v-31zm80 31v163h14c32 0 56-7 72-21 17-14 25-34 25-60 0-27-9-47-26-61-17-14-42-21-74-21h-11z"/>
  <path d="M423 91l13 43 43 13-43 13-13 43-13-43-43-13 43-13 13-43z"/>
</svg>
